<svg xmlns="http://www.w3.org/2000/svg" xmlns:xlink="http://www.w3.org/1999/xlink" viewBox="0 0 233.05 106.81">
    <defs>
        <style>
        .b-cls-1{fill:none;}.b-cls-2{clip-path:url(#clip-path);}.b-cls-3{fill:#f4436c;}.b-cls-4{fill:#464646;}.b-cls-5{fill:#a0bed5;}
        </style>
        <clipPath id="clip-path" transform="translate(-108.95 -24.02)">
            <rect class="b-cls-1" x="108.97" y="24.02" width="233.02" height="64.81" />
        </clipPath>
    </defs>
    <g id="logo">
        <g class="b-cls-2">
            <path class="b-cls-3" d="M116.92,72.34c5.33,0,6.87-3.32,6.87-6.47s-2.38-6.31-7.12-6.31h-4.36V72.35Zm-4.61-13.55h4.4c3.89,0,5.83-1.54,5.83-4.69,0-2.83-1.7-5.42-6.67-5.42-.89,0-2.55.08-3.56.12v10ZM109,69.35V48.06l.57,0c2.22-.08,5.29-.12,6.06-.12,3.56,0,6.67.53,8.13,1.58A5.14,5.14,0,0,1,126.18,54a5.3,5.3,0,0,1-4.61,4.93V59c3.8,1.13,6,3.6,6,6.76s-2.22,7.68-8.73,7.68H109V69.35Z" transform="translate(-108.95 -24.02)" />
        </g>
        <path class="b-cls-3" d="M221.37,67.37h1.87c.84,3.57,3.33,5.65,6.45,5.65,2.68,0,5.53-1.56,5.53-4.72,0-5.77-12.86-7.53-12.86-14.54,0-3.32,3-5.84,7.13-5.8,6.73.06,7.49,5.68,7.49,5.68h0c-1.88-3.46-4.37-4.72-7.13-4.72s-4.48,1.52-4.48,3.76c0,5.69,12.85,7.21,12.85,14.57,0,3.93-3.48,6.85-8.17,6.85a8.42,8.42,0,0,1-8.68-6.73Z" transform="translate(-108.95 -24.02)" />
        <path class="b-cls-3" d="M243.63,67.37h1.87c.84,3.57,3.33,5.65,6.45,5.65,2.69,0,5.53-1.56,5.53-4.72,0-5.77-12.85-7.53-12.85-14.54,0-3.32,3-5.84,7.12-5.8,6.73.06,7.49,5.68,7.49,5.68h0c-1.88-3.46-4.36-4.72-7.12-4.72s-4.49,1.52-4.49,3.76c0,5.69,12.85,7.21,12.85,14.57,0,3.93-3.48,6.85-8.16,6.85a8.43,8.43,0,0,1-8.69-6.73Z" transform="translate(-108.95 -24.02)" />
        <line class="b-cls-3" x1="151.19" y1="29.62" x2="151.19" y2="29.62" />
        <g class="b-cls-2">
            <path class="b-cls-3" d="M326.91,49c-7.05,0-9.85,6.56-9.85,11.37,0,7.49,5.08,12.77,11.53,12.77s9.65-5.76,9.65-11.45c0-7.45-4.73-12.69-11.33-12.69Zm.84,25.14c-7.85,0-14.46-5-14.46-12.53,0-8,6.13-13.61,14.66-13.61C335.52,48,342,53.12,342,60.33c0,8.09-6.48,13.77-14.25,13.77Z" transform="translate(-108.95 -24.02)" />
            <path class="b-cls-3" d="M202.8,51.71s-5.45,15.3-6.77,18c0,0-8.39-23.18-13.88-33.3-3.45-6.37-10.46-11.85-18.23-12.37-6.59-.43-12.93,2.23-16.39,8.64-2.23,5.11-2.23,10.31,1.81,15.09a14.22,14.22,0,0,0,10.51,4,4.72,4.72,0,0,0,1.79-.37v0a15.1,15.1,0,0,1-7.91-1.4,11.79,11.79,0,0,1-6.19-11.22c.13-2.13,1.45-7.15,5.28-10.07s8.83-3.4,13.69-2c10.76,3.14,14.77,14.24,18.57,22.82.16.33,6.29,15.88,9.26,23.88h1.79c.66-1.82,7.49-20.06,8.25-21.74s2.15-3.06,3.22-3.15h0c-2.88,0-4.14,1.3-4.79,3.15Z" transform="translate(-108.95 -24.02)" />
        </g>
        <path class="b-cls-3" d="M270.83,48.57h0Z" transform="translate(-108.95 -24.02)" />
        <path class="b-cls-3" d="M211.05,54.14c0,.55,0,19.34,0,19.34h3.37V48.57h-.16c-.65,0-3.17.49-3.17,5.57Z" transform="translate(-108.95 -24.02)" />
        <path class="b-cls-3" d="M270.92,67.84c0-.55,0-19.33,0-19.33h-3.37V73.42h.16c.65,0,3.18-.49,3.18-5.58Z" transform="translate(-108.95 -24.02)" />
        <path class="b-cls-3" d="M306.59,48.6h-3.07l-9.61,20.18-7.69-16c-2-4.09-5.1-4.18-5.34-4.18h0l-1.54,24.85a5.6,5.6,0,0,0,2-3.9c0-.07,1.13-17.43,1.13-17.43h0l10.21,21.34h.93l10.05-21.34h0l1.08,17a4.46,4.46,0,0,0,3.64,4.3L306.59,48.6Z" transform="translate(-108.95 -24.02)" />
        <path class="b-cls-3" d="M146.34,55.56c0,4.81-2.92,6.69-7.37,6.69a17.32,17.32,0,0,1-2.48-.08V49a16.39,16.39,0,0,1,2-.08c6.17,0,7.85,2.88,7.85,6.6Zm29,5.29h0L170.42,48h-2.79l-9.38,25.5a5.11,5.11,0,0,0,2.95-3.1l7.06-19L172,61.17a12.7,12.7,0,0,0-7,3.67,15.17,15.17,0,0,1,7.38-2.79L175,69.23A6.87,6.87,0,0,0,180,73.46l-4.33-11.52c4.81.46,11.37,4.57,11.37,12.47a12.64,12.64,0,0,1-12.81,12.21c-17.09,0-29.47-24.81-29.47-24.81,3.28-1,5.32-3.48,5.32-6.49,0-4.08-3.32-7.12-10.73-7.12-2.6,0-3.4,0-5,.12l-1.17.06V73.46s3.31-.2,3.31-5.84c0-.24,0-.45,0-.65v-4a19.89,19.89,0,0,0,2,.08,18.93,18.93,0,0,0,3.63-.45c1.22,2.37,14.59,27.38,32.23,26.24,8.22-.54,14-6.41,14-14.31,0-7.11-6-13.64-13.11-13.64Z" transform="translate(-108.95 -24.02)" />
    </g>
    <g id="outlined_strapline" data-name="outlined strapline">
        <path class="b-cls-4" d="M130.86,110.51a5.72,5.72,0,0,1-2.2-.44l.38-1.15a4,4,0,0,0,1.85.44c1.78,0,2.93-1.35,3-3.63h0a3.83,3.83,0,0,1-2.43.92,2.94,2.94,0,0,1-3.09-3.17,3.32,3.32,0,0,1,3.38-3.42c2.1,0,3.6,1.53,3.6,4.79C135.37,108.32,133.7,110.51,130.86,110.51Zm.85-9.32a2.15,2.15,0,0,0,.09,4.28,2.72,2.72,0,0,0,2.11-1.06C133.9,102.4,133,101.19,131.71,101.19Z" transform="translate(-108.95 -24.02)" />
        <path class="b-cls-4" d="M145.41,107.71v2.67h-1.35v-2.67h-4.55v-1l5-6.63h.91v6.45H147v1.2ZM141,106.55h1.3l1.72,0,0-2.81c0-.48,0-1,0-1.3Z" transform="translate(-108.95 -24.02)" />
        <path class="b-cls-4" d="M160.56,110.51a5.06,5.06,0,0,1-2.92-.86l.62-1.07a3.88,3.88,0,0,0,2.25.75c.88,0,1.92-.42,1.92-1.43,0-1.67-2.46-2-3.7-3.38a2.55,2.55,0,0,1-.72-1.84c0-1.46,1.12-2.62,3.07-2.62a5.2,5.2,0,0,1,2.36.51l0,1.36a4.4,4.4,0,0,0-2.28-.68c-.94,0-1.73.39-1.73,1.29,0,2.14,4.49,2.12,4.49,5.22C163.9,109.42,162.45,110.51,160.56,110.51Z" transform="translate(-108.95 -24.02)" />
        <path class="b-cls-4" d="M168.82,110.35V100.13h1.38v10.22Z" transform="translate(-108.95 -24.02)" />
        <path class="b-cls-4" d="M175.12,110.35l5.15-9-4.66,0-.41-1.25h7.26l-5.09,9,5.27,0v1.24Z" transform="translate(-108.95 -24.02)" />
        <path class="b-cls-4" d="M187.4,110.35V100.13h5.22l-.44,1.23h-3.4v3.16h3.36v1.21h-3.36v3.4h3.88v1.22Z" transform="translate(-108.95 -24.02)" />
        <path class="b-cls-4" d="M200.05,110.51a5.06,5.06,0,0,1-2.92-.86l.62-1.07a3.88,3.88,0,0,0,2.25.75c.89,0,1.92-.42,1.92-1.43,0-1.67-2.46-2-3.7-3.38a2.58,2.58,0,0,1-.71-1.84c0-1.46,1.11-2.62,3.07-2.62a5.15,5.15,0,0,1,2.35.51v1.36a4.4,4.4,0,0,0-2.28-.68c-.95,0-1.74.39-1.74,1.29,0,2.14,4.5,2.12,4.5,5.22C203.4,109.42,201.94,110.51,200.05,110.51Z" transform="translate(-108.95 -24.02)" />
        <path class="b-cls-4" d="M208.37,112.27l-.76-.42a4.58,4.58,0,0,0,.42-3l1.37-.28A4.15,4.15,0,0,1,208.37,112.27Z" transform="translate(-108.95 -24.02)" />
        <path class="b-cls-4" d="M220.35,110.35c.48-5.53,5-5.27,5-7.66,0-1-.72-1.42-1.67-1.42a5.16,5.16,0,0,0-2.56.73l-.42-1.12a6.77,6.77,0,0,1,3.2-.82c2,0,2.94,1.13,2.94,2.52,0,3.12-4.17,3.14-4.79,6.56l4.78-.09v1.3Z" transform="translate(-108.95 -24.02)" />
        <path class="b-cls-4" d="M237.84,101.44l-4-.08v2.81c3.19-.21,4.25,1.41,4.25,3,0,1.8-1.28,3.34-4.05,3.34a5.16,5.16,0,0,1-2.28-.47l.42-1.08a3.86,3.86,0,0,0,2,.41c1.33,0,2.48-.69,2.48-2,0-1.2-.76-2-2.81-2H232.5v-5.14h5.65Z" transform="translate(-108.95 -24.02)" />
        <path class="b-cls-4" d="M252.86,110.35h-2.78V100.13h3a2.53,2.53,0,0,1,2.76,2.5,2.3,2.3,0,0,1-1.37,2.22h0a2.53,2.53,0,0,1,2,2.47C256.45,108.74,255.55,110.35,252.86,110.35Zm-1.4-9v3.16h1.24a1.61,1.61,0,0,0,1.67-1.63c0-.94-.55-1.53-1.75-1.53Zm1.49,4.39h-1.49v3.38h1.41c1.38,0,2.11-.75,2.11-1.77S254.2,105.75,253,105.75Z" transform="translate(-108.95 -24.02)" />
        <path class="b-cls-4" d="M266.68,110.35c-1.63-2.62-2.51-4.14-2.93-4.23h-1v4.23h-1.38V100.13h2.32c2.48,0,3.46,1.26,3.46,2.81a2.88,2.88,0,0,1-1.95,2.73h0c.37.19,1.49,2,3.11,4.67Zm-3-9h-1V105h1a1.9,1.9,0,0,0,1.95-1.87C265.69,102.17,265.16,101.36,263.69,101.36Z" transform="translate(-108.95 -24.02)" />
        <path class="b-cls-4" d="M279.1,110.35l-1-2.67h-3.95l-1,2.67h-1.36l3.92-10.25h.89l4,10.25Zm-2.58-6.94a10.3,10.3,0,0,1-.38-1.28h0a11.71,11.71,0,0,1-.4,1.26l-1.13,3.1h3Z" transform="translate(-108.95 -24.02)" />
        <path class="b-cls-4" d="M292.46,110.35l-5-6.59a10.35,10.35,0,0,1-1.06-1.52h0c0,.34.05.76.05,1.27v6.84h-1.38V100.13h1.41l4.79,6.34a10.92,10.92,0,0,1,1.12,1.63h0c0-.39,0-.82,0-1.33v-6.64h1.38v10.22Z" transform="translate(-108.95 -24.02)" />
        <path class="b-cls-4" d="M301.76,110.35h-2.51V100.13h2.51c3.83,0,5.59,2.14,5.59,5S305.52,110.35,301.76,110.35Zm.11-9h-1.24v7.77h1.22c3,0,4.06-1.88,4.06-4S304.64,101.36,301.87,101.36Z" transform="translate(-108.95 -24.02)" />
        <path class="b-cls-4" d="M314.61,110.51a5.06,5.06,0,0,1-2.92-.86l.62-1.07a3.88,3.88,0,0,0,2.25.75c.89,0,1.92-.42,1.92-1.43,0-1.67-2.46-2-3.7-3.38a2.54,2.54,0,0,1-.71-1.84c0-1.46,1.11-2.62,3.06-2.62a5.17,5.17,0,0,1,2.36.51v1.36a4.43,4.43,0,0,0-2.28-.68c-.95,0-1.74.39-1.74,1.29,0,2.14,4.5,2.12,4.5,5.22C318,109.42,316.5,110.51,314.61,110.51Z" transform="translate(-108.95 -24.02)" />
        <path class="b-cls-5" d="M156,128.44a4.17,4.17,0,0,1-2.53-1.21,5.3,5.3,0,0,1-3.52,1.29,3,3,0,0,1-3.29-3,3.11,3.11,0,0,1,2.21-2.9,3.34,3.34,0,0,1-1.2-2.37c0-1.21,1.09-2.26,2.84-2.26s2.79,1,2.79,2.29-.88,2.05-2.08,2.67a29.47,29.47,0,0,0,2.37,2.4,5.91,5.91,0,0,0,1.38-2.29l1.38.34a7.59,7.59,0,0,1-1.75,2.83,2.64,2.64,0,0,0,2.14.9l.28,1A2.13,2.13,0,0,1,156,128.44Zm-6.27-4.8c-1,.46-1.38,1-1.38,1.78a1.76,1.76,0,0,0,1.93,1.77,3.35,3.35,0,0,0,2.1-.82A35.75,35.75,0,0,1,149.69,123.64Zm.75-4.37a1,1,0,0,0-1.17,1c0,.53.28,1,1,1.76.91-.47,1.38-1.09,1.38-1.66A1.1,1.1,0,0,0,150.44,119.27Z" transform="translate(-108.95 -24.02)" />
        <path class="b-cls-5" d="M171.58,128.35v-8.59l-2.43,1-.45-1.2,3.24-1.53h1.22v10.29Z" transform="translate(-108.95 -24.02)" />
        <path class="b-cls-5" d="M193.59,127.41a4.25,4.25,0,0,1-3.16,1.1,4.2,4.2,0,0,1-3-1,3.93,3.93,0,0,1-1-2.9v-6.5H188v6.42a2.74,2.74,0,0,0,.66,1.89,2.3,2.3,0,0,0,1.78.67,2.49,2.49,0,0,0,1.91-.67,2.54,2.54,0,0,0,.57-1.79v-6.52h1.63v6.53A3.85,3.85,0,0,1,193.59,127.41Z" transform="translate(-108.95 -24.02)" />
        <path class="b-cls-5" d="M207.38,128.35l-4.8-6.28a12.69,12.69,0,0,1-1-1.47h0a13.18,13.18,0,0,1,0,1.33v6.42h-1.62V118.13h1.65l4.62,6.05a16,16,0,0,1,1.07,1.53h0c0-.41,0-.92,0-1.42v-6.16h1.62v10.22Z" transform="translate(-108.95 -24.02)" />
        <path class="b-cls-5" d="M214.22,128.35V118.13h1.63v10.22Z" transform="translate(-108.95 -24.02)" />
        <path class="b-cls-5" d="M229.35,127.19a5,5,0,0,1-2.93,1.3,3,3,0,0,0,2.25,1,3.87,3.87,0,0,0,1.14-.2l.36,1.15a5.05,5.05,0,0,1-1.94.34c-1.78,0-3-1.18-3.89-2.46a4.82,4.82,0,0,1-2.15-1.15,5.26,5.26,0,0,1-1.55-3.88,5.39,5.39,0,0,1,1.42-3.78A5.09,5.09,0,0,1,225.8,118a5.24,5.24,0,0,1,3.69,1.41,5.3,5.3,0,0,1,1.47,3.83A5.15,5.15,0,0,1,229.35,127.19Zm-3.57-7.74c-2,0-3.42,1.47-3.42,3.85s1.38,3.84,3.42,3.84,3.43-1.46,3.43-3.84S227.92,119.45,225.78,119.45Z" transform="translate(-108.95 -24.02)" />
        <path class="b-cls-5" d="M243.1,127.41a4.27,4.27,0,0,1-3.17,1.1,4.19,4.19,0,0,1-3-1,3.93,3.93,0,0,1-1-2.9v-6.5h1.61v6.42a2.74,2.74,0,0,0,.65,1.89,2.33,2.33,0,0,0,1.78.67,2.2,2.2,0,0,0,2.49-2.46v-6.52h1.62v6.53A3.89,3.89,0,0,1,243.1,127.41Z" transform="translate(-108.95 -24.02)" />
        <path class="b-cls-5" d="M249.45,128.35V118.13h5.46l-.5,1.4h-3.33v2.9h3.32v1.39h-3.32V127h3.84v1.39Z" transform="translate(-108.95 -24.02)" />
        <path class="b-cls-5" d="M269.57,124.29v4.06h-1.63v-4.09l-3.47-6.13h1.79l1.7,3.06c.26.49.6,1.1.82,1.6h0c.23-.5.54-1.09.79-1.57l1.67-3.09H273Z" transform="translate(-108.95 -24.02)" />
        <path class="b-cls-5" d="M277.58,119.53a5.42,5.42,0,0,1,7.58.11,5.34,5.34,0,0,1,1.28,3.63,5.24,5.24,0,0,1-1.47,3.81,5.55,5.55,0,0,1-7.24.17,5.26,5.26,0,0,1-1.61-3.92A5.34,5.34,0,0,1,277.58,119.53Zm3.7-.08c-2.06,0-3.44,1.46-3.44,3.85s1.38,3.83,3.44,3.83,3.43-1.46,3.43-3.83S283.42,119.45,281.28,119.45Z" transform="translate(-108.95 -24.02)" />
        <path class="b-cls-5" d="M298.41,127.41a4.25,4.25,0,0,1-3.16,1.1,4.2,4.2,0,0,1-3-1,3.93,3.93,0,0,1-1-2.9v-6.5h1.61v6.42a2.74,2.74,0,0,0,.65,1.89,2.33,2.33,0,0,0,1.79.67,2.45,2.45,0,0,0,1.9-.67,2.5,2.5,0,0,0,.58-1.79v-6.52h1.63v6.53A3.85,3.85,0,0,1,298.41,127.41Z" transform="translate(-108.95 -24.02)" />
    </g>
</svg>